<?xml version="1.0" encoding="UTF-8"?>
<!DOCTYPE svg PUBLIC "-//W3C//DTD SVG 1.1//EN" "http://www.w3.org/Graphics/SVG/1.1/DTD/svg11.dtd">
<!-- Creator: CorelDRAW 2019 (64-Bit Evaluation Version) -->
<svg xmlns="http://www.w3.org/2000/svg" xml:space="preserve" width="4.00522in" height="1.16146in" version="1.1" style="shape-rendering:geometricPrecision; text-rendering:geometricPrecision; image-rendering:optimizeQuality; fill-rule:evenodd; clip-rule:evenodd"
viewBox="0 0 318.08 92.24"
 xmlns:xlink="http://www.w3.org/1999/xlink"
 xmlns:xodm="http://www.corel.com/coreldraw/odm/2003">
 <defs>
  <style type="text/css">
   <![CDATA[
    .fil0 {fill:none}
    .fil3 {fill:#009933}
    .fil2 {fill:#009933}
    .fil1 {fill:white}
    .fil4 {fill:white;fill-rule:nonzero}
   ]]>
  </style>
 </defs>
 <g id="Layer_x0020_1">
  <metadata id="CorelCorpID_0Corel-Layer"/>
  <rect class="fil0" x="-0" y="-0" width="318.08" height="92.24"/>
  <g id="_2858459271040">
   <polygon class="fil1" points="38.94,20.91 48.35,20.91 55.51,35.18 50.8,44.56 "/>
   <path class="fil1" d="M98.27 51.51c-2.24,6.58 -8.47,11.31 -15.81,11.31 -9.12,0 -16.54,-7.31 -16.7,-16.4l-5.67 11.31c4.2,8.07 12.64,13.59 22.37,13.59 13.92,0 25.21,-11.28 25.21,-25.21 0,-0.92 -0.05,-1.82 -0.14,-2.71l-8.08 8.11 -1.17 0zm-25.55 -18.97c0.73,-0.52 1.5,-0.99 2.31,-1.39l0 -0c5.92,-2.94 13.29,-2.05 18.34,2.32l6.33 -5.74c-4.51,-4.23 -10.57,-6.82 -17.24,-6.82 -1.39,0 -2.74,0.11 -4.07,0.33l-5.67 11.3z"/>
   <polygon class="fil2" points="93.59,41.67 107.12,41.67 98.81,50.01 86.25,50.01 "/>
   <polygon class="fil3" points="24.63,20.91 34.04,20.91 49.91,52.56 65.79,20.91 75.2,20.91 49.91,71.32 "/>
   <g>
    <g>
     <path class="fil1" d="M230.59 53.04l0 5.03 3.66 0c3.25,0 3.25,-5.03 0,-5.03l-3.66 0zm0 6.41l0 3.79 -1.46 0 0 -11.61 0.31 0c1.6,0 3.21,0 4.81,0 5.17,0 5.17,7.81 0,7.81l-3.66 0z"/>
     <path class="fil1" d="M220.33 59.15l4.95 0 -2.48 -5.62 -2.48 5.62zm5.55 1.4l-6.15 0 -1.19 2.7 -1.59 0 5.2 -11.61 1.32 0 5.2 11.61 -1.58 0 -1.21 -2.7z"/>
     <path class="fil1" d="M208.39 53.04l0 4.64 3.58 0c1.55,0 2.45,-0.76 2.47,-2.32 0.02,-1.4 -1,-2.31 -2.37,-2.31l-3.67 0zm4.38 5.96l3.91 4.24 -1.95 0 -3.79 -4.15 -2.55 0 0 4.15 -1.46 0 0 -11.61 0.31 0c1.61,0 3.22,0 4.83,0 1.1,0 2.15,0.35 2.92,1.17 0.65,0.69 0.99,1.62 1,2.56 0.02,2.05 -1.31,3.38 -3.2,3.63z"/>
     <path class="fil1" d="M173.47 59.15l4.95 0 -2.48 -5.62 -2.48 5.62zm5.55 1.4l-6.15 0 -1.19 2.7 -1.59 0 5.2 -11.61 1.32 0 5.2 11.61 -1.58 0 -1.21 -2.7z"/>
     <path class="fil1" d="M273.52 53.77l-1.23 0.73 -0.16 -0.26c-0.71,-1.13 -1.83,-1.34 -3.06,-1.34 -1.19,-0.01 -3.01,0.41 -3.01,1.92 0,0.23 0.05,0.45 0.18,0.64 0.48,0.72 2.14,0.98 2.93,1.13 2.07,0.39 4.57,0.81 4.56,3.46 -0.01,2.59 -2.49,3.38 -4.65,3.38 -1.88,0 -3.89,-0.8 -4.77,-2.55l-0.14 -0.28 1.3 -0.65 0.14 0.27c0.6,1.2 2.2,1.82 3.47,1.82 1.31,0 3.18,-0.35 3.19,-2.01 0,-0.3 -0.07,-0.57 -0.24,-0.82 -0.56,-0.79 -2.22,-1.06 -3.12,-1.23 -1.81,-0.35 -4.31,-0.77 -4.31,-3.12 -0.05,-2.47 2.41,-3.36 4.48,-3.36 1.84,0 3.19,0.39 4.27,2l0.18 0.27z"/>
     <path class="fil1" d="M262.56 60.45l1.01 0.95 -0.22 0.22c-1.12,1.12 -2.64,1.74 -4.22,1.74 -1.94,0 -3.74,-0.7 -4.88,-2.32 -0.73,-1.03 -1.07,-2.28 -1.08,-3.54 -0.01,-1.21 0.3,-2.42 0.95,-3.44 1.12,-1.75 2.97,-2.54 5,-2.54 1.58,0 3.1,0.62 4.22,1.74l0.23 0.23 -1.05 0.91 -0.2 -0.2c-0.85,-0.85 -2,-1.31 -3.2,-1.31 -2.77,0 -4.55,1.85 -4.52,4.58 0.02,2.69 1.8,4.49 4.52,4.49 1.2,0 2.36,-0.47 3.22,-1.31l0.21 -0.21z"/>
     <polygon class="fil1" points="251.96,63.24 250.51,63.24 250.51,51.64 251.96,51.64 "/>
     <polygon class="fil1" points="247.23,58.26 240.86,58.26 240.86,63.24 239.39,63.24 239.39,51.64 240.86,51.64 240.86,56.87 247.23,56.87 247.23,51.64 248.7,51.64 248.7,63.24 247.23,63.24 "/>
     <path class="fil1" d="M203.98 60.87l0 -2.63 -3.83 0 0 -1.35 5.24 0 0 4.54 -0.09 0.09c-1.2,1.2 -2.65,1.86 -4.36,1.86 -1.93,0 -3.74,-0.69 -4.88,-2.3 -0.75,-1.05 -1.08,-2.32 -1.09,-3.6 -0.01,-3.56 2.41,-5.98 5.97,-5.98 1.58,0 3.1,0.62 4.23,1.73l0.21 0.21 -0.9 0.99 -0.23 -0.22c-0.87,-0.85 -2.1,-1.32 -3.31,-1.32 -2.74,0 -4.55,1.89 -4.54,4.58 0.01,2.72 1.8,4.51 4.54,4.51 1.1,0 2.19,-0.38 3.03,-1.1z"/>
     <polygon class="fil1" points="184.06,61.83 190.24,61.83 190.24,63.24 182.6,63.24 182.6,51.64 184.06,51.64 "/>
     <path class="fil1" d="M168.25 51.64l1.45 0 0 7.13c0,6.14 -9.02,6.16 -9.02,0l0 -7.13 1.45 0 0 7.13c0,4.31 6.13,4.3 6.13,0l0 -7.13z"/>
     <path class="fil1" d="M159.3 53.77l-1.23 0.73 -0.16 -0.26c-0.71,-1.13 -1.83,-1.34 -3.06,-1.34 -1.19,-0.01 -3.01,0.41 -3.01,1.92 0,0.23 0.05,0.45 0.18,0.64 0.48,0.72 2.14,0.98 2.93,1.13 2.07,0.39 4.57,0.81 4.56,3.46 -0.01,2.59 -2.49,3.38 -4.65,3.38 -1.88,0 -3.89,-0.8 -4.77,-2.55l-0.14 -0.28 1.3 -0.65 0.14 0.27c0.6,1.2 2.2,1.82 3.47,1.82 1.31,0 3.18,-0.35 3.19,-2.01 0,-0.3 -0.07,-0.57 -0.24,-0.82 -0.56,-0.79 -2.22,-1.06 -3.12,-1.23 -1.81,-0.35 -4.31,-0.77 -4.31,-3.12 -0.05,-2.47 2.41,-3.36 4.48,-3.36 1.84,0 3.19,0.39 4.27,2l0.18 0.27z"/>
     <polygon class="fil1" points="148.64,63.24 147.19,63.24 147.19,51.64 148.64,51.64 "/>
     <polygon class="fil1" points="141.06,61.17 144.91,51.64 146.49,51.64 141.72,63.27 140.39,63.27 135.63,51.64 137.2,51.64 "/>
    </g>
    <g>
     <g>
      <path class="fil4" d="M195.78 41.41l-9.05 0 0 -3.64 8.73 0 0 -2.83 -8.73 0 0 -3.73 9.05 0 0 -2.95 -12.07 0c0,5.38 0,10.78 0,16.14l12.07 0 0 -2.99z"/>
      <polygon class="fil4" points="168.89,37.43 158.53,28.27 158.53,44.41 161.57,44.41 161.57,34.9 171.93,44.41 171.93,28.27 168.89,28.27 "/>
      <polygon class="fil4" points="146.4,44.41 146.4,28.27 143.39,28.27 143.39,44.41 "/>
      <polygon class="fil4" points="132.46,28.27 129.05,28.27 124.17,38.2 119.31,28.27 115.9,28.27 124.18,44.48 "/>
     </g>
     <polygon class="fil4" points="285.92,34.29 281.89,28.28 278.55,28.28 278.55,28.42 283.98,36.26 278.39,44.33 278.39,44.42 281.8,44.42 285.92,38.36 290.04,44.42 293.45,44.42 293.45,44.33 287.83,36.26 293.29,28.42 293.29,28.28 289.95,28.28 "/>
     <path class="fil4" d="M266.86 41.43l-9.05 0 0 -3.64 8.73 0 0 -2.83 -8.73 0 0 -3.73 9.05 0 0 -2.95 -12.07 0c0,5.38 0,10.78 0,16.14l12.07 0 0 -2.99z"/>
     <polygon class="fil4" points="231.58,28.28 231.58,44.42 242.91,44.42 242.91,41.61 234.62,41.61 234.62,28.28 "/>
     <polygon class="fil4" points="211.14,44.42 211.14,38.46 219.22,38.46 219.22,35.65 211.14,35.65 211.14,31.25 219.68,31.25 219.68,28.32 208.1,28.32 208.1,44.42 "/>
    </g>
   </g>
  </g>
 </g>
</svg>
